<?xml version="1.0" encoding="UTF-8"?><svg id="Layer_1" xmlns="http://www.w3.org/2000/svg" viewBox="0 0 20 20"><path d="M12.7,14.94c-.2,0-.4-.04-.58-.12l-.11-.06c-.61-.38-1.1-.94-1.39-1.6-.51-.99-.97-2-1.36-3.04-.36-.93-.78-1.84-1.25-2.72-.28-.51-.42-.55-.49-.59-.17-.02-.33,.04-.43,.18-.44,.66-.81,1.37-1.09,2.11-.18,.41-.34,.81-.51,1.21l-.21,.49H.44v-1.59h3.76c.1-.24,.2-.47,.3-.7,.33-.86,.76-1.67,1.27-2.43,.76-1,1.48-1.07,1.96-.96,.74,.26,1.34,.81,1.66,1.53,.51,.94,.96,1.91,1.34,2.91,.38,1,.82,1.97,1.31,2.92,.16,.36,.51,.86,.69,.86,.15,0,.19-.05,.37-.28,.37-.51,.65-1.08,.84-1.68,.16-.37,.32-.74,.47-1.11l.44-1.05h4.69v1.59h-3.63l-.03,.07c-.16,.38-.32,.76-.47,1.11-.32,.8-.75,1.54-1.28,2.22l-.06,.06c-.35,.41-.85,.65-1.38,.68Z"/></svg>