<?xml version="1.0" encoding="UTF-8"?><svg id="Layer_1" xmlns="http://www.w3.org/2000/svg" viewBox="0 0 20 20"><path d="M19.63,3.94c-.05-.07-.14-.12-.26-.09-.66,.14-1.55,.45-2.56,.96-.16-.12-.28-.26-.54-.42-1.06-.7-3.87-1.1-7.06,.02-2.28,.91-3.42,2.06-3.99,3.03-.8,1.34-.49,2.32-.28,2.67,.14,.21,.75,1.15,2.46,.84,.63-.12,1.43-.38,2.37-.94,1.31-.84,1.9-1.74,2.18-2.44,.35-.91,.16-1.41-.14-1.69-.38-.28-1.27-.82-3.52,.38-.84,.52-1.36,1.01-1.71,1.41-.14,.16-.26,.33-.38,.49-.21,.3-.47,.82-.52,.99-.02,.16,.09,.21,.12,.21,.09,.02,.23,.07,.28-.02,.09-.26,.26-.54,.42-.82,.42-.66,1.03-1.31,1.81-1.81,1.34-.96,3.35-1.17,3.35-.02-.09,1.17-1.76,2.7-3.4,3.45-1.22,.56-2.25,.68-2.81,0-.33-.38-.33-.73-.23-1.38,.21-1.03,.96-1.99,1.74-2.58,1.17-.91,2.53-1.62,4.69-1.97,.84-.12,1.78-.16,2.79-.05,1.43,.21,1.9,.73,2.06,.87-1.13,.66-1.27,.73-2.37,1.62-1.31,1.01-2.56,2.58-3.59,3.66-2.89,3.33-4.34,5.07-7.08,5.56,0,0-1.99,.3-2.56-.8-.02-.05,.05-.02,.07-.02,.3,.09,.52,0,.66-.28,.09-.21,.09-.54-.33-.75-.68-.19-.89,.35-.91,.35-.05,.14-.26,.94,.84,1.55,.87,.42,2.3,.66,4.29-.07,1.48-.56,2.67-1.29,4.18-2.86,1.1-1.17,2.37-2.79,2.79-3.38,.05,.35,.26,.42,.4,.49,.26,.12,.77,.12,1.45,0,.14,.28,.28,.87-.14,1.9-.28,.75-1.52,2.77-3.33,3.68-.14,.09-.8,.38-1.24,.21-.47-.16-.42-.63-.4-.75,.02-.19,.21-1.08,1.41-2.04,.89-.7,1.59-.96,2.49-1.17,0,0,.19-.02,.19-.14s-.07-.16-.19-.16c-.14,0-.38,.05-.68,.12-.38,.12-.84,.26-1.69,.8-.38,.26-.61,.45-.87,.7-.47,.47-.49,.59-.68,.84-.26,.49-.28,.77-.3,.89-.02,.23-.05,.61,.21,.87,0,0,.23,.35,.94,.45,0,0,.73,.09,1.59-.28,.7-.28,.94-.49,1.29-.7,.33-.23,.83-.65,1.1-.95l.48-.59c.26-.4,1.23-1.63,.67-3.27-.09-.28-.19-.4-.26-.54,.56-.19,3.57-1.52,2.58-4.1-.14-.4-.21-.49-.38-.73,1.03-.56,1.67-.8,2.35-.99,.19-.07,.16-.14,.14-.19Zm-6.26,5.93c-.4-.02-.35-.14-.35-.19,.05-.05,.12-.14,.42-.14,.4,.02,.59,.21,.59,.21,0-.02-.19,.09-.66,.12Zm1.13-.3c-.52-.42-1.36-.47-1.78-.21,.21-.28,1.1-1.36,1.43-1.74,1.13-1.15,1.74-1.64,2.6-2.2,.05-.02,.05-.05,.07-.02,.07,.16,.16,.33,.19,.49,.14,1.52-1.22,3.07-2.51,3.68Z"/></svg>