<?xml version="1.0" encoding="UTF-8"?><svg id="Layer_1" xmlns="http://www.w3.org/2000/svg" viewBox="0 0 20 20"><rect x="12.14" y="6.37" width=".6" height="4.89"/><path d="M9.28,11.25h.73l-1.77-4.89h-.75l-1.84,4.89h.68l.53-1.46h1.93l.5,1.46Zm-2.24-2l.79-2.16,.74,2.16h-1.53Z"/><polygon points="19.57 3.76 .43 3.76 .43 15.16 5.73 15.16 5.73 14.03 1.56 14.03 1.56 4.89 18.44 4.89 18.44 14.03 10.94 14.03 12.68 12.29 11.88 11.49 8.71 14.65 11.87 17.82 12.68 17.01 10.83 15.16 19.57 15.16 19.57 3.76"/><rect x="10.58" y="6.37" width=".6" height="4.89"/></svg>