<?xml version="1.0" encoding="UTF-8"?><svg id="Layer_1" xmlns="http://www.w3.org/2000/svg" viewBox="0 0 20 20"><defs><style>.cls-1{fill:#161615;}</style></defs><path class="cls-1" d="M19.39,11.58v-3.15h-2.2c-.18-.81-.49-1.58-.92-2.29l1.49-1.53-2.3-2.43-1.59,1.55c-.71-.44-1.5-.76-2.32-.94l-.04-2.19h-3.19V2.82c-.82,.19-1.61,.52-2.32,.97l-1.6-1.57L1.96,4.62l1.67,1.6c-.42,.69-.72,1.46-.89,2.25H.61v3.26H2.78c.19,.79,.51,1.55,.94,2.23l-1.54,1.48,2.32,2.35,1.52-1.54c.72,.46,1.53,.79,2.36,.97v2.18h3.25v-2.2c.83-.19,1.62-.52,2.33-.98l1.49,1.55,2.33-2.31-1.55-1.54c.45-.71,.77-1.51,.95-2.33h2.2Zm-4.42,2.45l1.42,1.42-.92,.91-1.38-1.44c-.99,.79-2.18,1.3-3.44,1.45v2.03h-1.29v-2.03c-1.26-.14-2.46-.64-3.46-1.42l-1.4,1.42-.92-.94,1.43-1.37c-.76-.96-1.26-2.12-1.42-3.34H1.59v-1.29h1.98c.13-1.22,.59-2.39,1.33-3.37l-1.53-1.46,1.02-1.01,1.49,1.47c.98-.78,2.16-1.28,3.41-1.43V1.59h1.24l.03,2.04c1.23,.14,2.42,.61,3.4,1.37l1.45-1.41,.97,1.02-1.39,1.43c.75,.98,1.22,2.15,1.36,3.38h2.04v1.19h-2.04c-.14,1.25-.63,2.45-1.4,3.43ZM10,5.89c-5.34-.07-5.34,8.29,0,8.22,5.34,.07,5.34-8.29,0-8.22Zm0,7.24c-4.07,.06-4.07-6.31,0-6.26,4.07-.06,4.07,6.31,0,6.26Z"/></svg>