<?xml version="1.0" encoding="UTF-8"?><svg id="Layer_1" xmlns="http://www.w3.org/2000/svg" viewBox="0 0 20 20"><path d="M15.76,9l1.65-1.6h-4.44l-2.64,2.5,2.65,2.56h4.29l-1.5-1.46,.79-.81,2.18,2.12h.01s.39,.39,.39,.39l.4,.39h-.01s.01,.02,.01,.02l-.4,.39-.39,.4h-.01s-2.18,2.11-2.18,2.11l-.79-.81,1.65-1.6h-4.9l-3.01-2.91-3.08,2.91H.48v-1.13H5.97l2.72-2.57-2.57-2.49H.48v-1.13H6.57l2.94,2.84,3.01-2.84h4.74l-1.5-1.46,.79-.81,2.18,2.12h.01s.39,.39,.39,.39l.4,.39h-.01s.01,.02,.01,.02l-.4,.39-.39,.4h-.01s-2.18,2.11-2.18,2.11l-.79-.81Z"/></svg>