<?xml version="1.0" encoding="UTF-8"?><svg id="Layer_1" xmlns="http://www.w3.org/2000/svg" viewBox="0 0 20 20"><path d="M3.51,3.79h.04c.31,.35,.65,.66,.98,1l2.22,2.22v.04c-1.07,1.07-2.14,2.15-3.22,3.22-1.08-1.07-2.16-2.15-3.23-3.23,.07-.1,.15-.19,.24-.26,.99-1,1.99-1.98,2.97-2.99m6.47,0h.04s.06,.09,.1,.13c1.04,1.03,2.06,2.07,3.11,3.1-.03,.06-.07,.11-.13,.15-1.04,1.03-2.07,2.07-3.11,3.1-1.08-1.07-2.15-2.16-3.24-3.22,1.06-1.1,2.16-2.16,3.22-3.25m6.47,0h.04c.2,.24,.44,.45,.65,.67l2.43,2.43s.11,.09,.12,.15c-1.09,1.06-2.14,2.16-3.24,3.22l-3.09-3.08c-.05-.06-.12-.1-.14-.17,.55-.53,1.08-1.08,1.62-1.62,.53-.54,1.08-1.06,1.6-1.61M6.81,13.45l3.18-3.18,.04,.02c1.06,1.07,2.13,2.13,3.2,3.19-.04,.08-.11,.13-.17,.19-.77,.77-1.55,1.55-2.32,2.31-.25,.24-.49,.51-.75,.74-.37-.33-.7-.7-1.06-1.04-.72-.72-1.44-1.45-2.17-2.16,.01-.02,.02-.05,.03-.07"/></svg>