<?xml version="1.0" encoding="UTF-8"?><svg id="Layer_1" xmlns="http://www.w3.org/2000/svg" viewBox="0 0 20 20"><path d="M16.81,13.05c-.33,0-.63,.07-.93,.17l.12-.07-4.03-6.97-.14,.08c.6-.52,.99-1.28,.99-2.14,0-1.57-1.27-2.84-2.84-2.84s-2.84,1.27-2.84,2.84c0,.86,.39,1.62,.99,2.14l-.18-.1L3.94,13.13l.13,.08c-.28-.09-.58-.16-.89-.16-1.57,0-2.84,1.27-2.84,2.84s1.27,2.84,2.84,2.84c1.42,0,2.58-1.04,2.79-2.4v.26H14.03v-.17c.25,1.32,1.4,2.31,2.78,2.31,1.57,0,2.84-1.27,2.84-2.84s-1.27-2.84-2.84-2.84Zm-2.78,2.31v-.17H5.98v.26c-.1-.66-.43-1.24-.91-1.67l.07,.04,4.03-6.97-.1-.06c.29,.1,.6,.17,.93,.17s.63-.07,.93-.17l-.14,.08,4.03,6.97,.17-.1c-.48,.41-.82,.97-.94,1.62Z"/></svg>