<?xml version="1.0" encoding="UTF-8"?><svg id="Layer_1" xmlns="http://www.w3.org/2000/svg" viewBox="0 0 20 20"><path id="Group_1737" d="M10.72,17.62L3.51,13.44H.52V6.66H3.51L10.72,2.38v15.24Zm1.87-4.77l-.45-.57s1.17-.94,1.11-2.15c-.08-.8-.49-1.54-1.11-2.04l.45-.56c.78,.63,1.28,1.55,1.38,2.56,.07,1.6-1.32,2.72-1.38,2.77Zm1.7,1.93l-.44-.57c2.28-1.7,2.76-4.93,1.06-7.22-.3-.4-.65-.76-1.06-1.06l.44-.57c2.6,1.95,3.12,5.63,1.18,8.23-.33,.45-.73,.84-1.18,1.18h0Zm2.24,2.01l-.51-.51c1.68-1.65,2.66-3.88,2.73-6.24,.1-2.36-.9-4.64-2.71-6.17l.46-.55c1.97,1.67,3.06,4.16,2.96,6.75-.08,2.54-1.13,4.94-2.94,6.72Z"/></svg>